<svg class="railroad-diagram" height="471" viewBox="0 0 701.5 471" width="701.5" xmlns="http://www.w3.org/2000/svg" xmlns:xlink="http://www.w3.org/1999/xlink">
<g transform="translate(.5 .5)">
<g>
<path d="M20 83v20m0 -10h20" /></g><path d="M40 93h10" /><g>
<path d="M50 93h0.0" /><path d="M50.0 93h10" /><g>
<path d="M60.0 93h76.75" /><path d="M564.75 93h76.75" /><g>
<path d="M136.75 93h0.0" /><path d="M222.25 93h0.0" /><rect class="group-box" height="47" rx="10" ry="10" width="85.5" x="136.75" y="65"></rect><g>
<path d="M136.75 93h0.0" /><path d="M222.25 93h0.0" /><path d="M136.75 93a10 10 0 0 0 10 -10v0a10 10 0 0 1 10 -10" /><g>
<path d="M156.75 73h45.5" /></g><path d="M202.25 73a10 10 0 0 1 10 10v0a10 10 0 0 0 10 10" /><path d="M136.75 93h20" /><g class="terminal ">
<path d="M156.75 93h0.0" /><path d="M202.25 93h0.0" /><rect height="22" rx="10" ry="10" width="45.5" x="156.75" y="82"></rect><text x="179.5" y="97">...</text></g><path d="M202.25 93h20" /></g><g class="non-terminal ">
<path d="M136.75 57h0.0" /><path d="M181.75 57h0.0" /><text class="comment" x="159.25" y="62">splat</text></g></g><path d="M222.25 93h10" /><path d="M232.25 93h10" /><g>
<path d="M242.25 93h0.0" /><path d="M564.75 93h0.0" /><g>
<path d="M242.25 93h0.0" /><path d="M390.75 93h0.0" /><path d="M242.25 93a10 10 0 0 0 10 -10v-53a10 10 0 0 1 10 -10" /><g>
<path d="M262.25 20h108.5" /></g><path d="M370.75 20a10 10 0 0 1 10 10v53a10 10 0 0 0 10 10" /><path d="M242.25 93h20" /><g>
<path d="M262.25 93h0.0" /><path d="M370.75 93h0.0" /><rect class="group-box" height="106" rx="10" ry="10" width="108.5" x="262.25" y="44"></rect><g>
<path d="M262.25 93h10.0" /><path d="M360.75 93h10.0" /><path d="M272.25 93h10" /><g>
<path d="M282.25 93h0.0" /><path d="M350.75 93h0.0" /><path d="M282.25 93a10 10 0 0 0 10 -10v-10a10 10 0 0 1 10 -10" /><g class="terminal ">
<path d="M302.25 63h0.0" /><path d="M330.75 63h0.0" /><rect height="22" rx="10" ry="10" width="28.5" x="302.25" y="52"></rect><text x="316.5" y="67">+</text></g><path d="M330.75 63a10 10 0 0 1 10 10v10a10 10 0 0 0 10 10" /><path d="M282.25 93h20" /><g class="terminal ">
<path d="M302.25 93h0.0" /><path d="M330.75 93h0.0" /><rect height="22" rx="10" ry="10" width="28.5" x="302.25" y="82"></rect><text x="316.5" y="97">~</text></g><path d="M330.75 93h20" /><path d="M282.25 93a10 10 0 0 1 10 10v10a10 10 0 0 0 10 10" /><g class="terminal ">
<path d="M302.25 123h0.0" /><path d="M330.75 123h0.0" /><rect height="22" rx="10" ry="10" width="28.5" x="302.25" y="112"></rect><text x="316.5" y="127">?</text></g><path d="M330.75 123a10 10 0 0 0 10 -10v-10a10 10 0 0 1 10 -10" /></g><path d="M350.75 93h10" /><path d="M282.25 93a10 10 0 0 0 -10 10v29a10 10 0 0 0 10 10" /><g>
<path d="M282.25 142h68.5" /></g><path d="M350.75 142a10 10 0 0 0 10 -10v-29a10 10 0 0 0 -10 -10" /></g><g class="non-terminal ">
<path d="M262.25 36h0.0" /><path d="M335.25 36h0.0" /><text class="comment" x="298.75" y="41">key flags</text></g></g><path d="M370.75 93h20" /></g><g>
<path d="M390.75 93h0.0" /><path d="M479.25 93h0.0" /><path d="M390.75 93a10 10 0 0 0 10 -10v-23a10 10 0 0 1 10 -10" /><g>
<path d="M410.75 50h48.5" /></g><path d="M459.25 50a10 10 0 0 1 10 10v23a10 10 0 0 0 10 10" /><path d="M390.75 93h20" /><g>
<path d="M410.75 93h0.0" /><path d="M459.25 93h0.0" /><rect class="group-box" height="38" rx="10" ry="10" width="48.5" x="410.75" y="74"></rect><g class="terminal ">
<path d="M410.75 93h10.0" /><path d="M449.25 93h10.0" /><rect height="22" rx="10" ry="10" width="28.5" x="420.75" y="82"></rect><text x="435" y="97">@</text></g><g class="non-terminal ">
<path d="M410.75 66h0.0" /><path d="M441.75 66h0.0" /><text class="comment" x="426.25" y="71">ref</text></g></g><path d="M459.25 93h20" /><path d="M390.75 93a10 10 0 0 1 10 10v18a10 10 0 0 0 10 10" /><g class="terminal ">
<path d="M410.75 131h10.0" /><path d="M449.25 131h10.0" /><rect height="22" rx="10" ry="10" width="28.5" x="420.75" y="120"></rect><text x="435" y="135">=</text></g><path d="M459.25 131a10 10 0 0 0 10 -10v-18a10 10 0 0 1 10 -10" /></g><g>
<path d="M479.25 93h0.0" /><path d="M564.75 93h0.0" /><path d="M479.25 93a10 10 0 0 0 10 -10v0a10 10 0 0 1 10 -10" /><g>
<path d="M499.25 73h45.5" /></g><path d="M544.75 73a10 10 0 0 1 10 10v0a10 10 0 0 0 10 10" /><path d="M479.25 93h20" /><g class="non-terminal ">
<path d="M499.25 93h0.0" /><path d="M544.75 93h0.0" /><rect height="22" width="45.5" x="499.25" y="82"></rect><text x="522" y="97">key</text></g><path d="M544.75 93h20" /></g></g></g><path d="M641.5 93a10 10 0 0 1 10 10v45a10 10 0 0 1 -10 10h-581.5a10 10 0 0 0 -10 10v48a10 10 0 0 0 10 10" /><g>
<path d="M60.0 226h0.0" /><path d="M641.5 226h0.0" /><path d="M60.0 226a10 10 0 0 0 10 -10v-40a10 10 0 0 1 10 -10" /><g>
<path d="M80.0 166h541.5" /></g><path d="M621.5 166a10 10 0 0 1 10 10v40a10 10 0 0 0 10 10" /><path d="M60.0 226h20" /><g>
<path d="M80.0 226h0.0" /><path d="M621.5 226h0.0" /><g class="terminal ">
<path d="M80.0 226h0.0" /><path d="M108.5 226h0.0" /><rect height="22" rx="10" ry="10" width="28.5" x="80" y="215"></rect><text x="94.25" y="230">:</text></g><path d="M108.5 226h10" /><path d="M118.5 226h10" /><g>
<path d="M128.5 226h0.0" /><path d="M239.5 226h0.0" /><rect class="group-box" height="107" rx="10" ry="10" width="111" x="128.5" y="198"></rect><g>
<path d="M128.5 226h0.0" /><path d="M239.5 226h0.0" /><path d="M128.5 226a10 10 0 0 0 10 -10v0a10 10 0 0 1 10 -10" /><g>
<path d="M148.5 206h71.0" /></g><path d="M219.5 206a10 10 0 0 1 10 10v0a10 10 0 0 0 10 10" /><path d="M128.5 226h20" /><g class="terminal ">
<path d="M148.5 226h0.0" /><path d="M219.5 226h0.0" /><rect height="22" rx="10" ry="10" width="71" x="148.5" y="215"></rect><text x="184" y="230">string</text></g><path d="M219.5 226h20" /><path d="M128.5 226a10 10 0 0 1 10 10v10a10 10 0 0 0 10 10" /><g class="terminal ">
<path d="M148.5 256h0.0" /><path d="M219.5 256h0.0" /><rect height="22" rx="10" ry="10" width="71" x="148.5" y="245"></rect><text x="184" y="260">number</text></g><path d="M219.5 256a10 10 0 0 0 10 -10v-10a10 10 0 0 1 10 -10" /><path d="M128.5 226a10 10 0 0 1 10 10v40a10 10 0 0 0 10 10" /><g class="non-terminal ">
<path d="M148.5 286h12.75" /><path d="M206.75 286h12.75" /><rect height="22" width="45.5" x="161.25" y="275"></rect><text x="184" y="290">...</text></g><path d="M219.5 286a10 10 0 0 0 10 -10v-40a10 10 0 0 1 10 -10" /></g><g class="non-terminal ">
<path d="M128.5 190h0.0" /><path d="M166.5 190h0.0" /><text class="comment" x="147.5" y="195">type</text></g></g><path d="M239.5 226h10" /><path d="M249.5 226h10" /><g>
<path d="M259.5 226h0.0" /><path d="M345.0 226h0.0" /><rect class="group-box" height="107" rx="10" ry="10" width="85.5" x="259.5" y="198"></rect><g>
<path d="M259.5 226h0.0" /><path d="M345.0 226h0.0" /><path d="M259.5 226a10 10 0 0 0 10 -10v0a10 10 0 0 1 10 -10" /><g>
<path d="M279.5 206h45.5" /></g><path d="M325.0 206a10 10 0 0 1 10 10v0a10 10 0 0 0 10 10" /><path d="M259.5 226h20" /><g class="terminal ">
<path d="M279.5 226h4.25" /><path d="M320.75 226h4.25" /><rect height="22" rx="10" ry="10" width="37" x="283.75" y="215"></rect><text x="302.25" y="230">[]</text></g><path d="M325.0 226h20" /><path d="M259.5 226a10 10 0 0 1 10 10v10a10 10 0 0 0 10 10" /><g class="terminal ">
<path d="M279.5 256h4.25" /><path d="M320.75 256h4.25" /><rect height="22" rx="10" ry="10" width="37" x="283.75" y="245"></rect><text x="302.25" y="260">{}</text></g><path d="M325.0 256a10 10 0 0 0 10 -10v-10a10 10 0 0 1 10 -10" /><path d="M259.5 226a10 10 0 0 1 10 10v40a10 10 0 0 0 10 10" /><g class="non-terminal ">
<path d="M279.5 286h0.0" /><path d="M325.0 286h0.0" /><rect height="22" width="45.5" x="279.5" y="275"></rect><text x="302.25" y="290">...</text></g><path d="M325.0 286a10 10 0 0 0 10 -10v-40a10 10 0 0 1 10 -10" /></g><g class="non-terminal ">
<path d="M259.5 190h0.0" /><path d="M339.5 190h0.0" /><text class="comment" x="299.5" y="195">collection</text></g></g><path d="M345.0 226h10" /><path d="M355.0 226h10" /><g>
<path d="M365.0 226h0.0" /><path d="M621.5 226h0.0" /><rect class="group-box" height="85" rx="10" ry="10" width="256.5" x="365" y="190"></rect><g>
<path d="M365.0 226h0.0" /><path d="M621.5 226h0.0" /><path d="M365.0 226a10 10 0 0 0 10 -10v-8a10 10 0 0 1 10 -10" /><g>
<path d="M385.0 198h216.5" /></g><path d="M601.5 198a10 10 0 0 1 10 10v8a10 10 0 0 0 10 10" /><path d="M365.0 226h20" /><g>
<path d="M385.0 226h0.0" /><path d="M601.5 226h0.0" /><g class="terminal ">
<path d="M385.0 226h0.0" /><path d="M413.5 226h0.0" /><rect height="22" rx="10" ry="10" width="28.5" x="385" y="215"></rect><text x="399.25" y="230">/</text></g><path d="M413.5 226h10" /><g>
<path d="M423.5 226h0.0" /><path d="M563.0 226h0.0" /><path d="M423.5 226a10 10 0 0 0 10 -10v0a10 10 0 0 1 10 -10" /><g>
<path d="M443.5 206h99.5" /></g><path d="M543.0 206a10 10 0 0 1 10 10v0a10 10 0 0 0 10 10" /><path d="M423.5 226h20" /><g>
<path d="M443.5 226h0.0" /><path d="M543.0 226h0.0" /><path d="M443.5 226h10" /><g class="non-terminal ">
<path d="M453.5 226h0.0" /><path d="M533.0 226h0.0" /><rect height="22" width="79.5" x="453.5" y="215"></rect><text x="493.25" y="230">key=val</text></g><path d="M533.0 226h10" /><path d="M453.5 226a10 10 0 0 0 -10 10v10a10 10 0 0 0 10 10" /><g class="terminal ">
<path d="M453.5 256h25.5" /><path d="M507.5 256h25.5" /><rect height="22" rx="10" ry="10" width="28.5" x="479" y="245"></rect><text x="493.25" y="260">,</text></g><path d="M533.0 256a10 10 0 0 0 10 -10v-10a10 10 0 0 0 -10 -10" /></g><path d="M543.0 226h20" /></g><path d="M563.0 226h10" /><g class="terminal ">
<path d="M573.0 226h0.0" /><path d="M601.5 226h0.0" /><rect height="22" rx="10" ry="10" width="28.5" x="573" y="215"></rect><text x="587.25" y="230">/</text></g></g><path d="M601.5 226h20" /></g><g class="non-terminal ">
<path d="M365.0 182h0.0" /><path d="M445.0 182h0.0" /><text class="comment" x="405" y="187">attributes</text></g></g></g><path d="M621.5 226h20" /></g><path d="M641.5 226a10 10 0 0 1 10 10v67a10 10 0 0 1 -10 10h-581.5a10 10 0 0 0 -10 10v61a10 10 0 0 0 10 10" /><g>
<path d="M60.0 394h116.0" /><path d="M525.5 394h116.0" /><g>
<path d="M176.0 394h0.0" /><path d="M324.5 394h0.0" /><path d="M176.0 394a10 10 0 0 0 10 -10v-53a10 10 0 0 1 10 -10" /><g>
<path d="M196.0 321h108.5" /></g><path d="M304.5 321a10 10 0 0 1 10 10v53a10 10 0 0 0 10 10" /><path d="M176.0 394h20" /><g>
<path d="M196.0 394h0.0" /><path d="M304.5 394h0.0" /><rect class="group-box" height="106" rx="10" ry="10" width="108.5" x="196" y="345"></rect><g>
<path d="M196.0 394h10.0" /><path d="M294.5 394h10.0" /><path d="M206.0 394h10" /><g>
<path d="M216.0 394h0.0" /><path d="M284.5 394h0.0" /><path d="M216.0 394a10 10 0 0 0 10 -10v-10a10 10 0 0 1 10 -10" /><g class="terminal ">
<path d="M236.0 364h0.0" /><path d="M264.5 364h0.0" /><rect height="22" rx="10" ry="10" width="28.5" x="236" y="353"></rect><text x="250.25" y="368">+</text></g><path d="M264.5 364a10 10 0 0 1 10 10v10a10 10 0 0 0 10 10" /><path d="M216.0 394h20" /><g class="terminal ">
<path d="M236.0 394h0.0" /><path d="M264.5 394h0.0" /><rect height="22" rx="10" ry="10" width="28.5" x="236" y="383"></rect><text x="250.25" y="398">~</text></g><path d="M264.5 394h20" /><path d="M216.0 394a10 10 0 0 1 10 10v10a10 10 0 0 0 10 10" /><g class="terminal ">
<path d="M236.0 424h0.0" /><path d="M264.5 424h0.0" /><rect height="22" rx="10" ry="10" width="28.5" x="236" y="413"></rect><text x="250.25" y="428">?</text></g><path d="M264.5 424a10 10 0 0 0 10 -10v-10a10 10 0 0 1 10 -10" /></g><path d="M284.5 394h10" /><path d="M216.0 394a10 10 0 0 0 -10 10v29a10 10 0 0 0 10 10" /><g>
<path d="M216.0 443h68.5" /></g><path d="M284.5 443a10 10 0 0 0 10 -10v-29a10 10 0 0 0 -10 -10" /></g><g class="non-terminal ">
<path d="M196.0 337h0.0" /><path d="M283.0 337h0.0" /><text class="comment" x="239.5" y="342">value flags</text></g></g><path d="M304.5 394h20" /></g><g>
<path d="M324.5 394h0.0" /><path d="M525.5 394h0.0" /><path d="M324.5 394a10 10 0 0 0 10 -10v-23a10 10 0 0 1 10 -10" /><g>
<path d="M344.5 351h161.0" /></g><path d="M505.5 351a10 10 0 0 1 10 10v23a10 10 0 0 0 10 10" /><path d="M324.5 394h20" /><g>
<path d="M344.5 394h0.0" /><path d="M505.5 394h0.0" /><g>
<path d="M344.5 394h0.0" /><path d="M433.0 394h0.0" /><path d="M344.5 394h20" /><g>
<path d="M364.5 394h0.0" /><path d="M413.0 394h0.0" /><rect class="group-box" height="38" rx="10" ry="10" width="48.5" x="364.5" y="375"></rect><g class="terminal ">
<path d="M364.5 394h10.0" /><path d="M403.0 394h10.0" /><rect height="22" rx="10" ry="10" width="28.5" x="374.5" y="383"></rect><text x="388.75" y="398">@</text></g><g class="non-terminal ">
<path d="M364.5 367h0.0" /><path d="M395.5 367h0.0" /><text class="comment" x="380" y="372">ref</text></g></g><path d="M413.0 394h20" /><path d="M344.5 394a10 10 0 0 1 10 10v18a10 10 0 0 0 10 10" /><g class="terminal ">
<path d="M364.5 432h10.0" /><path d="M403.0 432h10.0" /><rect height="22" rx="10" ry="10" width="28.5" x="374.5" y="421"></rect><text x="388.75" y="436">=</text></g><path d="M413.0 432a10 10 0 0 0 10 -10v-18a10 10 0 0 1 10 -10" /></g><path d="M433.0 394h10" /><g class="non-terminal ">
<path d="M443.0 394h0.0" /><path d="M505.5 394h0.0" /><rect height="22" width="62.5" x="443" y="383"></rect><text x="474.25" y="398">value</text></g></g><path d="M505.5 394h20" /></g></g><path d="M641.5 394h10" /><path d="M651.5 394h0.0" /></g><path d="M651.5 394h10" /><path d="M 661.5 394 h 20 m 0 -10 v 20"></path></g><style>/* <![CDATA[ */
:root {
  --line-colour: rgb(48 48 48);
  --line-width: 2px;
  --cell-bg-colour: rgb(227 247 255);
  --cell-text-colour: rgb(20 20 20);
  --font-monospace: ui-monospace,SFMono-Regular,SF Mono,Menlo,Consolas,Liberation Mono,monospace;
  --font-sans: -apple-system,system-ui,BlinkMacSystemFont,"Segoe UI",Roboto,"Helvetica Neue",Arial,sans-serif;
  --group-colour: gray;
}
@media (prefers-color-scheme: dark) {
  :root {
    --line-colour: rgb(173, 186, 199);
    --cell-bg-colour: rgb(50 67 88);
    --cell-text-colour: rgb(217 225 235);
    --group-colour: gray;
  }
}

svg.railroad-diagram path {
  stroke-width: var(--line-width);
  stroke: var(--line-colour);
  fill: rgba(0, 0, 0, 0);
}

svg.railroad-diagram text {
  font-family: var(--font-sans);
  font-weight: 500;
  font-size: 14px;
  text-anchor: middle;
  white-space: pre;
  fill: var(--cell-text-colour);
}

svg.railroad-diagram text.diagram-text {
  font-size: 12px;
}

svg.railroad-diagram text.diagram-arrow {
  font-size: 16px;
}

svg.railroad-diagram text.label {
  text-anchor: start;
}

svg.railroad-diagram g.terminal text {
  font-family: var(--font-monospace);
  transform: translate(0px, 0.5px);
}
svg.railroad-diagram g.non-terminal text {
  transform: translate(0px, 1px);
}

svg.railroad-diagram g.non-terminal text.comment,
svg.railroad-diagram g.terminal text.comment,
svg.railroad-diagram text.comment {
  font-style: italic;
  font-size: 12px;
  transform: translate(0px, -2px);
}

svg.railroad-diagram rect {
  stroke-width: var(--line-width);
  stroke: var(--line-colour);
  fill: var(--cell-bg-colour);
}

svg.railroad-diagram rect.group-box {
  stroke: var(--group-colour);
  stroke-dasharray: 2 4;
  stroke-width: 1.5px;
  fill: none;
}

/* ]]> */
</style></svg>