<svg class="railroad-diagram" height="491" viewBox="0 0 701.5 491" width="701.5" xmlns="http://www.w3.org/2000/svg" xmlns:xlink="http://www.w3.org/1999/xlink">
<g transform="translate(.5 .5)">
<g>
<path d="M20 103v20m0 -10h20" /></g><path d="M40 113h10" /><g>
<path d="M50 113h0.0" /><path d="M50.0 113h10" /><g>
<path d="M60.0 113h91.75" /><path d="M549.75 113h91.75" /><g>
<path d="M151.75 113h0.0" /><path d="M237.25 113h0.0" /><rect class="group-box" height="47" rx="10" ry="10" width="85.5" x="151.75" y="85"></rect><g>
<path d="M151.75 113h0.0" /><path d="M237.25 113h0.0" /><path d="M151.75 113a10 10 0 0 0 10 -10v0a10 10 0 0 1 10 -10" /><g>
<path d="M171.75 93h45.5" /></g><path d="M217.25 93a10 10 0 0 1 10 10v0a10 10 0 0 0 10 10" /><path d="M151.75 113h20" /><g class="terminal ">
<path d="M171.75 113h0.0" /><path d="M217.25 113h0.0" /><rect height="22" rx="10" ry="10" width="45.5" x="171.75" y="102"></rect><text x="194.5" y="117">...</text></g><path d="M217.25 113h20" /></g><g class="non-terminal ">
<path d="M151.75 77h0.0" /><path d="M196.75 77h0.0" /><text class="comment" x="174.25" y="82">splat</text></g></g><path d="M237.25 113h10" /><g>
<path d="M247.25 113h0.0" /><path d="M549.75 113h0.0" /><path d="M247.25 113a10 10 0 0 0 10 -10v-73a10 10 0 0 1 10 -10" /><g>
<path d="M267.25 20h262.5" /></g><path d="M529.75 20a10 10 0 0 1 10 10v73a10 10 0 0 0 10 10" /><path d="M247.25 113h20" /><g>
<path d="M267.25 113h0.0" /><path d="M529.75 113h0.0" /><g>
<path d="M267.25 113h0.0" /><path d="M375.75 113h0.0" /><rect class="group-box" height="116" rx="10" ry="10" width="108.5" x="267.25" y="44"></rect><g>
<path d="M267.25 113h10.0" /><path d="M365.75 113h10.0" /><path d="M277.25 113h10" /><g>
<path d="M287.25 113h0.0" /><path d="M355.75 113h0.0" /><path d="M287.25 113a10 10 0 0 0 10 -10v0a10 10 0 0 1 10 -10" /><g class="terminal ">
<path d="M307.25 93h0.0" /><path d="M335.75 93h0.0" /><rect height="22" rx="10" ry="10" width="28.5" x="307.25" y="82"></rect><text x="321.5" y="97">~</text></g><path d="M335.75 93a10 10 0 0 1 10 10v0a10 10 0 0 0 10 10" /><path d="M287.25 113a10 10 0 0 0 10 -10v-30a10 10 0 0 1 10 -10" /><g class="terminal ">
<path d="M307.25 63h0.0" /><path d="M335.75 63h0.0" /><rect height="22" rx="10" ry="10" width="28.5" x="307.25" y="52"></rect><text x="321.5" y="67">+</text></g><path d="M335.75 63a10 10 0 0 1 10 10v30a10 10 0 0 0 10 10" /><path d="M287.25 113h20" /><g>
<path d="M307.25 113h28.5" /></g><path d="M335.75 113h20" /><path d="M287.25 113a10 10 0 0 1 10 10v0a10 10 0 0 0 10 10" /><g class="terminal ">
<path d="M307.25 133h0.0" /><path d="M335.75 133h0.0" /><rect height="22" rx="10" ry="10" width="28.5" x="307.25" y="122"></rect><text x="321.5" y="137">?</text></g><path d="M335.75 133a10 10 0 0 0 10 -10v0a10 10 0 0 1 10 -10" /></g><path d="M355.75 113h10" /><path d="M287.25 113a10 10 0 0 0 -10 10v19a10 10 0 0 0 10 10" /><g>
<path d="M287.25 152h68.5" /></g><path d="M355.75 152a10 10 0 0 0 10 -10v-19a10 10 0 0 0 -10 -10" /></g><g class="non-terminal ">
<path d="M267.25 36h0.0" /><path d="M340.25 36h0.0" /><text class="comment" x="303.75" y="41">key flags</text></g></g><path d="M375.75 113h10" /><g>
<path d="M385.75 113h0.0" /><path d="M474.25 113h0.0" /><path d="M385.75 113a10 10 0 0 0 10 -10v-7a10 10 0 0 1 10 -10" /><g>
<path d="M405.75 86h0.0" /><path d="M454.25 86h0.0" /><rect class="group-box" height="38" rx="10" ry="10" width="48.5" x="405.75" y="67"></rect><g class="terminal ">
<path d="M405.75 86h10.0" /><path d="M444.25 86h10.0" /><rect height="22" rx="10" ry="10" width="28.5" x="415.75" y="75"></rect><text x="430" y="90">@</text></g><g class="non-terminal ">
<path d="M405.75 59h0.0" /><path d="M436.75 59h0.0" /><text class="comment" x="421.25" y="64">ref</text></g></g><path d="M454.25 86a10 10 0 0 1 10 10v7a10 10 0 0 0 10 10" /><path d="M385.75 113h20" /><g>
<path d="M405.75 113h48.5" /></g><path d="M454.25 113h20" /><path d="M385.75 113a10 10 0 0 1 10 10v0a10 10 0 0 0 10 10" /><g class="terminal ">
<path d="M405.75 133h10.0" /><path d="M444.25 133h10.0" /><rect height="22" rx="10" ry="10" width="28.5" x="415.75" y="122"></rect><text x="430" y="137">=</text></g><path d="M454.25 133a10 10 0 0 0 10 -10v0a10 10 0 0 1 10 -10" /></g><path d="M474.25 113h10" /><g class="non-terminal ">
<path d="M484.25 113h0.0" /><path d="M529.75 113h0.0" /><rect height="22" width="45.5" x="484.25" y="102"></rect><text x="507" y="117">key</text></g></g><path d="M529.75 113h20" /></g></g><path d="M641.5 113a10 10 0 0 1 10 10v35a10 10 0 0 1 -10 10h-581.5a10 10 0 0 0 -10 10v48a10 10 0 0 0 10 10" /><g>
<path d="M60.0 236h0.0" /><path d="M641.5 236h0.0" /><path d="M60.0 236a10 10 0 0 0 10 -10v-40a10 10 0 0 1 10 -10" /><g>
<path d="M80.0 176h541.5" /></g><path d="M621.5 176a10 10 0 0 1 10 10v40a10 10 0 0 0 10 10" /><path d="M60.0 236h20" /><g>
<path d="M80.0 236h0.0" /><path d="M621.5 236h0.0" /><g class="terminal ">
<path d="M80.0 236h0.0" /><path d="M108.5 236h0.0" /><rect height="22" rx="10" ry="10" width="28.5" x="80" y="225"></rect><text x="94.25" y="240">:</text></g><path d="M108.5 236h10" /><path d="M118.5 236h10" /><g>
<path d="M128.5 236h0.0" /><path d="M239.5 236h0.0" /><rect class="group-box" height="107" rx="10" ry="10" width="111" x="128.5" y="208"></rect><g>
<path d="M128.5 236h0.0" /><path d="M239.5 236h0.0" /><path d="M128.5 236a10 10 0 0 0 10 -10v0a10 10 0 0 1 10 -10" /><g>
<path d="M148.5 216h71.0" /></g><path d="M219.5 216a10 10 0 0 1 10 10v0a10 10 0 0 0 10 10" /><path d="M128.5 236h20" /><g class="terminal ">
<path d="M148.5 236h0.0" /><path d="M219.5 236h0.0" /><rect height="22" rx="10" ry="10" width="71" x="148.5" y="225"></rect><text x="184" y="240">string</text></g><path d="M219.5 236h20" /><path d="M128.5 236a10 10 0 0 1 10 10v10a10 10 0 0 0 10 10" /><g class="terminal ">
<path d="M148.5 266h0.0" /><path d="M219.5 266h0.0" /><rect height="22" rx="10" ry="10" width="71" x="148.5" y="255"></rect><text x="184" y="270">number</text></g><path d="M219.5 266a10 10 0 0 0 10 -10v-10a10 10 0 0 1 10 -10" /><path d="M128.5 236a10 10 0 0 1 10 10v40a10 10 0 0 0 10 10" /><g class="non-terminal ">
<path d="M148.5 296h12.75" /><path d="M206.75 296h12.75" /><rect height="22" width="45.5" x="161.25" y="285"></rect><text x="184" y="300">...</text></g><path d="M219.5 296a10 10 0 0 0 10 -10v-40a10 10 0 0 1 10 -10" /></g><g class="non-terminal ">
<path d="M128.5 200h0.0" /><path d="M166.5 200h0.0" /><text class="comment" x="147.5" y="205">type</text></g></g><path d="M239.5 236h10" /><path d="M249.5 236h10" /><g>
<path d="M259.5 236h0.0" /><path d="M345.0 236h0.0" /><rect class="group-box" height="107" rx="10" ry="10" width="85.5" x="259.5" y="208"></rect><g>
<path d="M259.5 236h0.0" /><path d="M345.0 236h0.0" /><path d="M259.5 236a10 10 0 0 0 10 -10v0a10 10 0 0 1 10 -10" /><g>
<path d="M279.5 216h45.5" /></g><path d="M325.0 216a10 10 0 0 1 10 10v0a10 10 0 0 0 10 10" /><path d="M259.5 236h20" /><g class="terminal ">
<path d="M279.5 236h4.25" /><path d="M320.75 236h4.25" /><rect height="22" rx="10" ry="10" width="37" x="283.75" y="225"></rect><text x="302.25" y="240">[]</text></g><path d="M325.0 236h20" /><path d="M259.5 236a10 10 0 0 1 10 10v10a10 10 0 0 0 10 10" /><g class="terminal ">
<path d="M279.5 266h4.25" /><path d="M320.75 266h4.25" /><rect height="22" rx="10" ry="10" width="37" x="283.75" y="255"></rect><text x="302.25" y="270">{}</text></g><path d="M325.0 266a10 10 0 0 0 10 -10v-10a10 10 0 0 1 10 -10" /><path d="M259.5 236a10 10 0 0 1 10 10v40a10 10 0 0 0 10 10" /><g class="non-terminal ">
<path d="M279.5 296h0.0" /><path d="M325.0 296h0.0" /><rect height="22" width="45.5" x="279.5" y="285"></rect><text x="302.25" y="300">...</text></g><path d="M325.0 296a10 10 0 0 0 10 -10v-40a10 10 0 0 1 10 -10" /></g><g class="non-terminal ">
<path d="M259.5 200h0.0" /><path d="M339.5 200h0.0" /><text class="comment" x="299.5" y="205">collection</text></g></g><path d="M345.0 236h10" /><path d="M355.0 236h10" /><g>
<path d="M365.0 236h0.0" /><path d="M621.5 236h0.0" /><rect class="group-box" height="85" rx="10" ry="10" width="256.5" x="365" y="200"></rect><g>
<path d="M365.0 236h0.0" /><path d="M621.5 236h0.0" /><path d="M365.0 236a10 10 0 0 0 10 -10v-8a10 10 0 0 1 10 -10" /><g>
<path d="M385.0 208h216.5" /></g><path d="M601.5 208a10 10 0 0 1 10 10v8a10 10 0 0 0 10 10" /><path d="M365.0 236h20" /><g>
<path d="M385.0 236h0.0" /><path d="M601.5 236h0.0" /><g class="terminal ">
<path d="M385.0 236h0.0" /><path d="M413.5 236h0.0" /><rect height="22" rx="10" ry="10" width="28.5" x="385" y="225"></rect><text x="399.25" y="240">/</text></g><path d="M413.5 236h10" /><g>
<path d="M423.5 236h0.0" /><path d="M563.0 236h0.0" /><path d="M423.5 236a10 10 0 0 0 10 -10v0a10 10 0 0 1 10 -10" /><g>
<path d="M443.5 216h99.5" /></g><path d="M543.0 216a10 10 0 0 1 10 10v0a10 10 0 0 0 10 10" /><path d="M423.5 236h20" /><g>
<path d="M443.5 236h0.0" /><path d="M543.0 236h0.0" /><path d="M443.5 236h10" /><g class="non-terminal ">
<path d="M453.5 236h0.0" /><path d="M533.0 236h0.0" /><rect height="22" width="79.5" x="453.5" y="225"></rect><text x="493.25" y="240">key=val</text></g><path d="M533.0 236h10" /><path d="M453.5 236a10 10 0 0 0 -10 10v10a10 10 0 0 0 10 10" /><g class="terminal ">
<path d="M453.5 266h25.5" /><path d="M507.5 266h25.5" /><rect height="22" rx="10" ry="10" width="28.5" x="479" y="255"></rect><text x="493.25" y="270">,</text></g><path d="M533.0 266a10 10 0 0 0 10 -10v-10a10 10 0 0 0 -10 -10" /></g><path d="M543.0 236h20" /></g><path d="M563.0 236h10" /><g class="terminal ">
<path d="M573.0 236h0.0" /><path d="M601.5 236h0.0" /><rect height="22" rx="10" ry="10" width="28.5" x="573" y="225"></rect><text x="587.25" y="240">/</text></g></g><path d="M601.5 236h20" /></g><g class="non-terminal ">
<path d="M365.0 192h0.0" /><path d="M445.0 192h0.0" /><text class="comment" x="405" y="197">attributes</text></g></g></g><path d="M621.5 236h20" /></g><path d="M641.5 236a10 10 0 0 1 10 10v67a10 10 0 0 1 -10 10h-581.5a10 10 0 0 0 -10 10v81a10 10 0 0 0 10 10" /><g>
<path d="M60.0 424h131.0" /><path d="M510.5 424h131.0" /><path d="M191.0 424a10 10 0 0 0 10 -10v-73a10 10 0 0 1 10 -10" /><g>
<path d="M211.0 331h279.5" /></g><path d="M490.5 331a10 10 0 0 1 10 10v73a10 10 0 0 0 10 10" /><path d="M191.0 424h20" /><g>
<path d="M211.0 424h0.0" /><path d="M490.5 424h0.0" /><g>
<path d="M211.0 424h0.0" /><path d="M319.5 424h0.0" /><rect class="group-box" height="116" rx="10" ry="10" width="108.5" x="211" y="355"></rect><g>
<path d="M211.0 424h10.0" /><path d="M309.5 424h10.0" /><path d="M221.0 424h10" /><g>
<path d="M231.0 424h0.0" /><path d="M299.5 424h0.0" /><path d="M231.0 424a10 10 0 0 0 10 -10v0a10 10 0 0 1 10 -10" /><g class="terminal ">
<path d="M251.0 404h0.0" /><path d="M279.5 404h0.0" /><rect height="22" rx="10" ry="10" width="28.5" x="251" y="393"></rect><text x="265.25" y="408">~</text></g><path d="M279.5 404a10 10 0 0 1 10 10v0a10 10 0 0 0 10 10" /><path d="M231.0 424a10 10 0 0 0 10 -10v-30a10 10 0 0 1 10 -10" /><g class="terminal ">
<path d="M251.0 374h0.0" /><path d="M279.5 374h0.0" /><rect height="22" rx="10" ry="10" width="28.5" x="251" y="363"></rect><text x="265.25" y="378">+</text></g><path d="M279.5 374a10 10 0 0 1 10 10v30a10 10 0 0 0 10 10" /><path d="M231.0 424h20" /><g>
<path d="M251.0 424h28.5" /></g><path d="M279.5 424h20" /><path d="M231.0 424a10 10 0 0 1 10 10v0a10 10 0 0 0 10 10" /><g class="terminal ">
<path d="M251.0 444h0.0" /><path d="M279.5 444h0.0" /><rect height="22" rx="10" ry="10" width="28.5" x="251" y="433"></rect><text x="265.25" y="448">?</text></g><path d="M279.5 444a10 10 0 0 0 10 -10v0a10 10 0 0 1 10 -10" /></g><path d="M299.5 424h10" /><path d="M231.0 424a10 10 0 0 0 -10 10v19a10 10 0 0 0 10 10" /><g>
<path d="M231.0 463h68.5" /></g><path d="M299.5 463a10 10 0 0 0 10 -10v-19a10 10 0 0 0 -10 -10" /></g><g class="non-terminal ">
<path d="M211.0 347h0.0" /><path d="M298.0 347h0.0" /><text class="comment" x="254.5" y="352">value flags</text></g></g><path d="M319.5 424h10" /><g>
<path d="M329.5 424h0.0" /><path d="M418.0 424h0.0" /><path d="M329.5 424a10 10 0 0 0 10 -10v-18a10 10 0 0 1 10 -10" /><g>
<path d="M349.5 386h0.0" /><path d="M398.0 386h0.0" /><rect class="group-box" height="38" rx="10" ry="10" width="48.5" x="349.5" y="367"></rect><g class="terminal ">
<path d="M349.5 386h10.0" /><path d="M388.0 386h10.0" /><rect height="22" rx="10" ry="10" width="28.5" x="359.5" y="375"></rect><text x="373.75" y="390">@</text></g><g class="non-terminal ">
<path d="M349.5 359h0.0" /><path d="M380.5 359h0.0" /><text class="comment" x="365" y="364">ref</text></g></g><path d="M398.0 386a10 10 0 0 1 10 10v18a10 10 0 0 0 10 10" /><path d="M329.5 424h20" /><g class="terminal ">
<path d="M349.5 424h10.0" /><path d="M388.0 424h10.0" /><rect height="22" rx="10" ry="10" width="28.5" x="359.5" y="413"></rect><text x="373.75" y="428">=</text></g><path d="M398.0 424h20" /></g><path d="M418.0 424h10" /><g class="non-terminal ">
<path d="M428.0 424h0.0" /><path d="M490.5 424h0.0" /><rect height="22" width="62.5" x="428" y="413"></rect><text x="459.25" y="428">value</text></g></g><path d="M490.5 424h20" /></g><path d="M641.5 424h10" /><path d="M651.5 424h0.0" /></g><path d="M651.5 424h10" /><path d="M 661.5 424 h 20 m 0 -10 v 20"></path></g><style>/* <![CDATA[ */
	svg.railroad-diagram {
		background-color:hsl(30,20%,95%);
	}
	svg.railroad-diagram path {
		stroke-width:3;
		stroke:black;
		fill:rgba(0,0,0,0);
	}
	svg.railroad-diagram text {
		font:bold 14px monospace;
		text-anchor:middle;
	}
	svg.railroad-diagram text.label{
		text-anchor:start;
	}
	svg.railroad-diagram text.comment{
		font:italic 12px monospace;
	}
	svg.railroad-diagram rect{
		stroke-width:3;
		stroke:black;
		fill:hsl(120,100%,90%);
	}
	svg.railroad-diagram rect.group-box {
		stroke: gray;
		stroke-dasharray: 10 5;
		fill: none;
	}

/* ]]> */
</style></svg>