<svg class="railroad-diagram" height="160" viewBox="0 0 341.5 160" width="341.5" xmlns="http://www.w3.org/2000/svg" xmlns:xlink="http://www.w3.org/1999/xlink">
<g transform="translate(.5 .5)">
<g>
<path d="M20 21v20m0 -10h20" /></g><path d="M40 31h10" /><g>
<path d="M50 31h0.0" /><path d="M291.5 31h0.0" /><path d="M50.0 31h10" /><g>
<path d="M60.0 31h0.0" /><path d="M281.5 31h0.0" /><path d="M60.0 31h20" /><g class="non-terminal ">
<path d="M80.0 31h0.0" /><path d="M261.5 31h0.0" /><rect height="22" width="181.5" x="80" y="20"></rect><text x="170.75" y="35">Any char except /,=</text></g><path d="M261.5 31h20" /><path d="M60.0 31a10 10 0 0 1 10 10v10a10 10 0 0 0 10 10" /><g class="terminal ">
<path d="M80.0 61h72.25" /><path d="M189.25 61h72.25" /><rect height="22" rx="10" ry="10" width="37" x="152.25" y="50"></rect><text x="170.75" y="65">==</text></g><path d="M261.5 61a10 10 0 0 0 10 -10v-10a10 10 0 0 1 10 -10" /><path d="M60.0 31a10 10 0 0 1 10 10v40a10 10 0 0 0 10 10" /><g class="terminal ">
<path d="M80.0 91h72.25" /><path d="M189.25 91h72.25" /><rect height="22" rx="10" ry="10" width="37" x="152.25" y="80"></rect><text x="170.75" y="95">,,</text></g><path d="M261.5 91a10 10 0 0 0 10 -10v-40a10 10 0 0 1 10 -10" /><path d="M60.0 31a10 10 0 0 1 10 10v70a10 10 0 0 0 10 10" /><g class="terminal ">
<path d="M80.0 121h72.25" /><path d="M189.25 121h72.25" /><rect height="22" rx="10" ry="10" width="37" x="152.25" y="110"></rect><text x="170.75" y="125">//</text></g><path d="M261.5 121a10 10 0 0 0 10 -10v-70a10 10 0 0 1 10 -10" /></g><path d="M281.5 31h10" /><path d="M60.0 31a10 10 0 0 0 -10 10v89a10 10 0 0 0 10 10" /><g>
<path d="M60.0 140h221.5" /></g><path d="M281.5 140a10 10 0 0 0 10 -10v-89a10 10 0 0 0 -10 -10" /></g><path d="M291.5 31h10" /><path d="M 301.5 31 h 20 m 0 -10 v 20"></path></g><style>/* <![CDATA[ */
:root {
  --line-colour: rgb(48 48 48);
  --line-width: 2px;
  --cell-bg-colour: rgb(227 247 255);
  --cell-text-colour: rgb(20 20 20);
  --font-monospace: ui-monospace,SFMono-Regular,SF Mono,Menlo,Consolas,Liberation Mono,monospace;
  --font-sans: -apple-system,system-ui,BlinkMacSystemFont,"Segoe UI",Roboto,"Helvetica Neue",Arial,sans-serif;
  --group-colour: gray;
}
@media (prefers-color-scheme: dark) {
  :root {
    --line-colour: rgb(173, 186, 199);
    --cell-bg-colour: rgb(50 67 88);
    --cell-text-colour: rgb(217 225 235);
    --group-colour: gray;
  }
}

svg.railroad-diagram path {
  stroke-width: var(--line-width);
  stroke: var(--line-colour);
  fill: rgba(0, 0, 0, 0);
}

svg.railroad-diagram text {
  font-family: var(--font-sans);
  font-weight: 500;
  font-size: 14px;
  text-anchor: middle;
  white-space: pre;
  fill: var(--cell-text-colour);
}

svg.railroad-diagram text.diagram-text {
  font-size: 12px;
}

svg.railroad-diagram text.diagram-arrow {
  font-size: 16px;
}

svg.railroad-diagram text.label {
  text-anchor: start;
}

svg.railroad-diagram g.terminal text {
  font-family: var(--font-monospace);
  transform: translate(0px, 0.5px);
}
svg.railroad-diagram g.non-terminal text {
  transform: translate(0px, 1px);
}

svg.railroad-diagram g.non-terminal text.comment,
svg.railroad-diagram g.terminal text.comment,
svg.railroad-diagram text.comment {
  font-style: italic;
  font-size: 12px;
  transform: translate(0px, -2px);
}

svg.railroad-diagram rect {
  stroke-width: var(--line-width);
  stroke: var(--line-colour);
  fill: var(--cell-bg-colour);
}

svg.railroad-diagram rect.group-box {
  stroke: var(--group-colour);
  stroke-dasharray: 2 4;
  stroke-width: 1.5px;
  fill: none;
}

/* ]]> */
</style></svg>