<svg class="railroad-diagram" height="119" viewBox="0 0 391.0 119" width="391.0" xmlns="http://www.w3.org/2000/svg" xmlns:xlink="http://www.w3.org/1999/xlink">
<g transform="translate(.5 .5)">
<g>
<path d="M20 69v20m0 -10h20" /></g><path d="M40 79h10" /><g>
<path d="M50 79h0.0" /><path d="M341.0 79h0.0" /><path d="M50.0 79h10" /><g>
<path d="M60.0 79h0.0" /><path d="M331.0 79h0.0" /><path d="M60.0 79a10 10 0 0 0 10 -10v-19a10 10 0 0 1 10 -10" /><g>
<path d="M80.0 40h0.0" /><path d="M311.0 40h0.0" /><path d="M80.0 40a10 10 0 0 0 10 -10v0a10 10 0 0 1 10 -10h124.0" /><path d="M167.0 60h124.0a10 10 0 0 0 10 -10v0a10 10 0 0 1 10 -10" /><path d="M80.0 40h10" /><g class="terminal ">
<path d="M90.0 40h10.0" /><path d="M137.0 40h10.0" /><rect height="22" rx="10" ry="10" width="37" x="100" y="29"></rect><text x="118.5" y="44">::</text></g><path d="M147.0 40a10 10 0 0 1 10 10v0a10 10 0 0 0 10 10" /><path d="M147.0 20a10 10 0 0 1 10 10v0a10 10 0 0 0 10 10" /><g class="terminal ">
<path d="M167.0 40h10.0" /><path d="M214.0 40h10.0" /><rect height="22" rx="10" ry="10" width="37" x="177" y="29"></rect><text x="195.5" y="44">==</text></g><path d="M224.0 40a10 10 0 0 1 10 10v0a10 10 0 0 0 10 10" /><path d="M224.0 20a10 10 0 0 1 10 10v0a10 10 0 0 0 10 10" /><g class="terminal ">
<path d="M244.0 40h10.0" /><path d="M291.0 40h10.0" /><rect height="22" rx="10" ry="10" width="37" x="254" y="29"></rect><text x="272.5" y="44">@@</text></g><path d="M301.0 40h10" /></g><path d="M311.0 40a10 10 0 0 1 10 10v19a10 10 0 0 0 10 10" /><path d="M60.0 79h20" /><g class="non-terminal ">
<path d="M80.0 79h24.75" /><path d="M286.25 79h24.75" /><rect height="22" width="181.5" x="104.75" y="68"></rect><text x="195.5" y="83">Any char except :=@</text></g><path d="M311.0 79h20" /></g><path d="M331.0 79h10" /><path d="M60.0 79a10 10 0 0 0 -10 10v0a10 10 0 0 0 10 10" /><g>
<path d="M60.0 99h271.0" /></g><path d="M331.0 99a10 10 0 0 0 10 -10v0a10 10 0 0 0 -10 -10" /></g><path d="M341.0 79h10" /><path d="M 351.0 79 h 20 m 0 -10 v 20"></path></g><style>/* <![CDATA[ */
	svg.railroad-diagram {
		background-color:hsl(30,20%,95%);
	}
	svg.railroad-diagram path {
		stroke-width:3;
		stroke:black;
		fill:rgba(0,0,0,0);
	}
	svg.railroad-diagram text {
		font:bold 14px monospace;
		text-anchor:middle;
	}
	svg.railroad-diagram text.label{
		text-anchor:start;
	}
	svg.railroad-diagram text.comment{
		font:italic 12px monospace;
	}
	svg.railroad-diagram rect{
		stroke-width:3;
		stroke:black;
		fill:hsl(120,100%,90%);
	}
	svg.railroad-diagram rect.group-box {
		stroke: gray;
		stroke-dasharray: 10 5;
		fill: none;
	}

/* ]]> */
</style></svg>