<svg class="railroad-diagram" height="101" viewBox="0 0 539.0 101" width="539.0" xmlns="http://www.w3.org/2000/svg" xmlns:xlink="http://www.w3.org/1999/xlink">
<g transform="translate(.5 .5)">
<g>
<path d="M20 30v20m0 -10h20" /></g><path d="M40 40h10" /><g>
<path d="M50 40h0.0" /><path d="M489.0 40h0.0" /><g>
<path d="M50.0 40h0.0" /><path d="M135.5 40h0.0" /><path d="M50.0 40a10 10 0 0 0 10 -10v0a10 10 0 0 1 10 -10" /><g>
<path d="M70.0 20h45.5" /></g><path d="M115.5 20a10 10 0 0 1 10 10v0a10 10 0 0 0 10 10" /><path d="M50.0 40h20" /><g class="non-terminal ">
<path d="M70.0 40h0.0" /><path d="M115.5 40h0.0" /><rect height="22" width="45.5" x="70" y="29"></rect><text x="92.75" y="44">key</text></g><path d="M115.5 40h20" /></g><g>
<path d="M135.5 40h0.0" /><path d="M308.0 40h0.0" /><path d="M135.5 40h20" /><g>
<path d="M155.5 40h0.0" /><path d="M288.0 40h0.0" /><g class="terminal ">
<path d="M155.5 40h0.0" /><path d="M184.0 40h0.0" /><rect height="22" rx="10" ry="10" width="28.5" x="155.5" y="29"></rect><text x="169.75" y="44">:</text></g><path d="M184.0 40h10" /><g>
<path d="M194.0 40h0.0" /><path d="M288.0 40h0.0" /><path d="M194.0 40a10 10 0 0 0 10 -10v0a10 10 0 0 1 10 -10" /><g>
<path d="M214.0 20h54.0" /></g><path d="M268.0 20a10 10 0 0 1 10 10v0a10 10 0 0 0 10 10" /><path d="M194.0 40h20" /><g class="non-terminal ">
<path d="M214.0 40h0.0" /><path d="M268.0 40h0.0" /><rect height="22" width="54" x="214" y="29"></rect><text x="241" y="44">type</text></g><path d="M268.0 40h20" /></g></g><path d="M288.0 40h20" /><path d="M135.5 40a10 10 0 0 1 10 10v0a10 10 0 0 0 10 10" /><g>
<path d="M155.5 60h132.5" /></g><path d="M288.0 60a10 10 0 0 0 10 -10v0a10 10 0 0 1 10 -10" /></g><g>
<path d="M308.0 40h0.0" /><path d="M489.0 40h0.0" /><path d="M308.0 40a10 10 0 0 0 10 -10v0a10 10 0 0 1 10 -10" /><g>
<path d="M328.0 20h141.0" /></g><path d="M469.0 20a10 10 0 0 1 10 10v0a10 10 0 0 0 10 10" /><path d="M308.0 40h20" /><g>
<path d="M328.0 40h0.0" /><path d="M469.0 40h0.0" /><g>
<path d="M328.0 40h0.0" /><path d="M396.5 40h0.0" /><path d="M328.0 40h20" /><g class="terminal ">
<path d="M348.0 40h0.0" /><path d="M376.5 40h0.0" /><rect height="22" rx="10" ry="10" width="28.5" x="348" y="29"></rect><text x="362.25" y="44">=</text></g><path d="M376.5 40h20" /><path d="M328.0 40a10 10 0 0 1 10 10v10a10 10 0 0 0 10 10" /><g class="terminal ">
<path d="M348.0 70h0.0" /><path d="M376.5 70h0.0" /><rect height="22" rx="10" ry="10" width="28.5" x="348" y="59"></rect><text x="362.25" y="74">@</text></g><path d="M376.5 70a10 10 0 0 0 10 -10v-10a10 10 0 0 1 10 -10" /></g><path d="M396.5 40h10" /><g class="non-terminal ">
<path d="M406.5 40h0.0" /><path d="M469.0 40h0.0" /><rect height="22" width="62.5" x="406.5" y="29"></rect><text x="437.75" y="44">value</text></g></g><path d="M469.0 40h20" /></g></g><path d="M489.0 40h10" /><path d="M 499.0 40 h 20 m 0 -10 v 20"></path></g><style>/* <![CDATA[ */
:root {
  --line-colour: rgb(48 48 48);
  --line-width: 2px;
  --cell-bg-colour: rgb(227 247 255);
  --cell-text-colour: rgb(20 20 20);
  --font-monospace: ui-monospace,SFMono-Regular,SF Mono,Menlo,Consolas,Liberation Mono,monospace;
  --font-sans: -apple-system,system-ui,BlinkMacSystemFont,"Segoe UI",Roboto,"Helvetica Neue",Arial,sans-serif;
  --group-colour: gray;
}
@media (prefers-color-scheme: dark) {
  :root {
    --line-colour: rgb(173, 186, 199);
    --cell-bg-colour: rgb(50 67 88);
    --cell-text-colour: rgb(217 225 235);
    --group-colour: gray;
  }
}

svg.railroad-diagram path {
  stroke-width: var(--line-width);
  stroke: var(--line-colour);
  fill: rgba(0, 0, 0, 0);
}

svg.railroad-diagram text {
  font-family: var(--font-sans);
  font-weight: 500;
  font-size: 14px;
  text-anchor: middle;
  white-space: pre;
  fill: var(--cell-text-colour);
}

svg.railroad-diagram text.diagram-text {
  font-size: 12px;
}

svg.railroad-diagram text.diagram-arrow {
  font-size: 16px;
}

svg.railroad-diagram text.label {
  text-anchor: start;
}

svg.railroad-diagram g.terminal text {
  font-family: var(--font-monospace);
  transform: translate(0px, 0.5px);
}
svg.railroad-diagram g.non-terminal text {
  transform: translate(0px, 1px);
}

svg.railroad-diagram g.non-terminal text.comment,
svg.railroad-diagram g.terminal text.comment,
svg.railroad-diagram text.comment {
  font-style: italic;
  font-size: 12px;
  transform: translate(0px, -2px);
}

svg.railroad-diagram rect {
  stroke-width: var(--line-width);
  stroke: var(--line-colour);
  fill: var(--cell-bg-colour);
}

svg.railroad-diagram rect.group-box {
  stroke: var(--group-colour);
  stroke-dasharray: 2 4;
  stroke-width: 1.5px;
  fill: none;
}

/* ]]> */
</style></svg>