<svg class="railroad-diagram" height="109" viewBox="0 0 469.0 109" width="469.0" xmlns="http://www.w3.org/2000/svg" xmlns:xlink="http://www.w3.org/1999/xlink">
<g transform="translate(.5 .5)">
<g>
<path d="M20 30v20m0 -10h20" /></g><g>
<path d="M40 40h0" /><path d="M429.0 40h0" /><path d="M40.0 40a10 10 0 0 0 10 -10v0a10 10 0 0 1 10 -10h45.5a10 10 0 0 1 10 10v0a10 10 0 0 0 10 10" /><path d="M40.0 40h20" /><g class="non-terminal ">
<path d="M60.0 40h0.0" /><path d="M105.5 40h0.0" /><rect height="22" width="45.5" x="60" y="29"></rect><text x="82.75" y="44">key</text></g><path d="M105.5 20h142.5a10 10 0 0 1 10 10v0a10 10 0 0 0 10 10" /><path d="M105.5 40h20" /><g>
<path d="M125.5 40h0.0" /><path d="M228.0 40h0.0" /><g class="terminal ">
<path d="M125.5 40h0.0" /><path d="M154.0 40h0.0" /><rect height="22" rx="10" ry="10" width="28.5" x="125.5" y="29"></rect><text x="139.75" y="44">:</text></g><path d="M154.0 40h10" /><path d="M164.0 40h10" /><g class="non-terminal ">
<path d="M174.0 40h0.0" /><path d="M228.0 40h0.0" /><rect height="22" width="54" x="174" y="29"></rect><text x="201" y="44">type</text></g></g><path d="M228.0 40h20" /><path d="M105.5 40a10 10 0 0 1 10 10v0a10 10 0 0 0 10 10h102.5a10 10 0 0 0 10 -10v0a10 10 0 0 1 10 -10" /><path d="M248.0 40h20" /><g>
<path d="M268.0 40h0.0" /><path d="M409.0 40h0.0" /><g>
<path d="M268.0 40h0.0" /><path d="M336.5 40h0.0" /><path d="M268.0 40h20" /><g class="terminal ">
<path d="M288.0 40h0.0" /><path d="M316.5 40h0.0" /><rect height="22" rx="10" ry="10" width="28.5" x="288" y="29"></rect><text x="302.25" y="44">=</text></g><path d="M316.5 40h20" /><path d="M268.0 40a10 10 0 0 1 10 10v10a10 10 0 0 0 10 10" /><g class="terminal ">
<path d="M288.0 70h0.0" /><path d="M316.5 70h0.0" /><rect height="22" rx="10" ry="10" width="28.5" x="288" y="59"></rect><text x="302.25" y="74">@</text></g><path d="M316.5 70a10 10 0 0 0 10 -10v-10a10 10 0 0 1 10 -10" /></g><path d="M336.5 40h10" /><g class="non-terminal ">
<path d="M346.5 40h0.0" /><path d="M409.0 40h0.0" /><rect height="22" width="62.5" x="346.5" y="29"></rect><text x="377.75" y="44">value</text></g></g><path d="M409.0 40h20" /><path d="M248.0 40a10 10 0 0 1 10 10v29a10 10 0 0 0 10 10h141.0a10 10 0 0 0 10 -10v-29a10 10 0 0 1 10 -10" /></g><path d="M 429.0 40 h 20 m 0 -10 v 20"></path></g><style>/* <![CDATA[ */
:root {
  --line-colour: rgb(48 48 48);
  --line-width: 2px;
  --cell-bg-colour: rgb(227 247 255);
  --cell-text-colour: rgb(20 20 20);
  --font-monospace: ui-monospace,SFMono-Regular,SF Mono,Menlo,Consolas,Liberation Mono,monospace;
  --font-sans: -apple-system,system-ui,BlinkMacSystemFont,"Segoe UI",Roboto,"Helvetica Neue",Arial,sans-serif;
  --group-colour: gray;
}
@media (prefers-color-scheme: dark) {
  :root {
    --line-colour: rgb(173, 186, 199);
    --cell-bg-colour: rgb(50 67 88);
    --cell-text-colour: rgb(217 225 235);
    --group-colour: gray;
  }
}

svg.railroad-diagram path {
  stroke-width: var(--line-width);
  stroke: var(--line-colour);
  fill: rgba(0, 0, 0, 0);
}

svg.railroad-diagram text {
  font-family: var(--font-sans);
  font-weight: 500;
  font-size: 14px;
  text-anchor: middle;
  white-space: pre;
  fill: var(--cell-text-colour);
}

svg.railroad-diagram text.diagram-text {
  font-size: 12px;
}

svg.railroad-diagram text.diagram-arrow {
  font-size: 16px;
}

svg.railroad-diagram text.label {
  text-anchor: start;
}

svg.railroad-diagram g.terminal text {
  font-family: var(--font-monospace);
  transform: translate(0px, 0.5px);
}
svg.railroad-diagram g.non-terminal text {
  transform: translate(0px, 1px);
}

svg.railroad-diagram g.non-terminal text.comment,
svg.railroad-diagram g.terminal text.comment,
svg.railroad-diagram text.comment {
  font-style: italic;
  font-size: 12px;
  transform: translate(0px, -2px);
}

svg.railroad-diagram rect {
  stroke-width: var(--line-width);
  stroke: var(--line-colour);
  fill: var(--cell-bg-colour);
}

svg.railroad-diagram rect.group-box {
  stroke: var(--group-colour);
  stroke-dasharray: 2 4;
  stroke-width: 1.5px;
  fill: none;
}

/* ]]> */
</style></svg>