<svg class="railroad-diagram" height="119" viewBox="0 0 620.0 119" width="620.0" xmlns="http://www.w3.org/2000/svg" xmlns:xlink="http://www.w3.org/1999/xlink">
<g transform="translate(.5 .5)">
<g>
<path d="M20 69v20m0 -10h20" /></g><path d="M40 79h10" /><g>
<path d="M50 79h0.0" /><path d="M570.0 79h0.0" /><g>
<path d="M50.0 79h0.0" /><path d="M152.5 79h0.0" /><path d="M50.0 79a10 10 0 0 0 10 -10v0a10 10 0 0 1 10 -10" /><g>
<path d="M70.0 59h62.5" /></g><path d="M132.5 59a10 10 0 0 1 10 10v0a10 10 0 0 0 10 10" /><path d="M50.0 79h20" /><g class="non-terminal ">
<path d="M70.0 79h0.0" /><path d="M132.5 79h0.0" /><rect height="22" width="62.5" x="70" y="68"></rect><text x="101.25" y="83">flags</text></g><path d="M132.5 79h20" /></g><g>
<path d="M152.5 79h0.0" /><path d="M570.0 79h0.0" /><path d="M152.5 79h20" /><g>
<path d="M172.5 79h0.0" /><path d="M550.0 79h0.0" /><g class="non-terminal ">
<path d="M172.5 79h0.0" /><path d="M269.0 79h0.0" /><rect height="22" width="96.5" x="172.5" y="68"></rect><text x="220.75" y="83">key-value</text></g><path d="M269.0 79h10" /><g>
<path d="M279.0 79h0.0" /><path d="M550.0 79h0.0" /><path d="M279.0 79a10 10 0 0 0 10 -10v-19a10 10 0 0 1 10 -10" /><g>
<path d="M299.0 40h0.0" /><path d="M530.0 40h0.0" /><path d="M299.0 40a10 10 0 0 0 10 -10v0a10 10 0 0 1 10 -10h124.0" /><path d="M386.0 60h124.0a10 10 0 0 0 10 -10v0a10 10 0 0 1 10 -10" /><path d="M299.0 40h10" /><g class="terminal ">
<path d="M309.0 40h10.0" /><path d="M356.0 40h10.0" /><rect height="22" rx="10" ry="10" width="37" x="319" y="29"></rect><text x="337.5" y="44">::</text></g><path d="M366.0 40a10 10 0 0 1 10 10v0a10 10 0 0 0 10 10" /><path d="M366.0 20a10 10 0 0 1 10 10v0a10 10 0 0 0 10 10" /><g class="terminal ">
<path d="M386.0 40h10.0" /><path d="M433.0 40h10.0" /><rect height="22" rx="10" ry="10" width="37" x="396" y="29"></rect><text x="414.5" y="44">==</text></g><path d="M443.0 40a10 10 0 0 1 10 10v0a10 10 0 0 0 10 10" /><path d="M443.0 20a10 10 0 0 1 10 10v0a10 10 0 0 0 10 10" /><g class="terminal ">
<path d="M463.0 40h10.0" /><path d="M510.0 40h10.0" /><rect height="22" rx="10" ry="10" width="37" x="473" y="29"></rect><text x="491.5" y="44">@@</text></g><path d="M520.0 40h10" /></g><path d="M530.0 40a10 10 0 0 1 10 10v19a10 10 0 0 0 10 10" /><path d="M279.0 79h20" /><g class="non-terminal ">
<path d="M299.0 79h12.0" /><path d="M518.0 79h12.0" /><rect height="22" width="207" x="311" y="68"></rect><text x="414.5" y="83">Any char except +~?:=@</text></g><path d="M530.0 79h20" /></g></g><path d="M550.0 79h20" /><path d="M152.5 79a10 10 0 0 1 10 10v0a10 10 0 0 0 10 10" /><g>
<path d="M172.5 99h377.5" /></g><path d="M550.0 99a10 10 0 0 0 10 -10v0a10 10 0 0 1 10 -10" /></g></g><path d="M570.0 79h10" /><path d="M 580.0 79 h 20 m 0 -10 v 20"></path></g><style>/* <![CDATA[ */
:root {
  --line-colour: rgb(48 48 48);
  --line-width: 2px;
  --cell-bg-colour: rgb(227 247 255);
  --cell-text-colour: rgb(20 20 20);
  --font-monospace: ui-monospace,SFMono-Regular,SF Mono,Menlo,Consolas,Liberation Mono,monospace;
  --font-sans: -apple-system,system-ui,BlinkMacSystemFont,"Segoe UI",Roboto,"Helvetica Neue",Arial,sans-serif;
  --group-colour: gray;
}
@media (prefers-color-scheme: dark) {
  :root {
    --line-colour: rgb(173, 186, 199);
    --cell-bg-colour: rgb(50 67 88);
    --cell-text-colour: rgb(217 225 235);
    --group-colour: gray;
  }
}

svg.railroad-diagram path {
  stroke-width: var(--line-width);
  stroke: var(--line-colour);
  fill: rgba(0, 0, 0, 0);
}

svg.railroad-diagram text {
  font-family: var(--font-sans);
  font-weight: 500;
  font-size: 14px;
  text-anchor: middle;
  white-space: pre;
  fill: var(--cell-text-colour);
}

svg.railroad-diagram text.diagram-text {
  font-size: 12px;
}

svg.railroad-diagram text.diagram-arrow {
  font-size: 16px;
}

svg.railroad-diagram text.label {
  text-anchor: start;
}

svg.railroad-diagram g.terminal text {
  font-family: var(--font-monospace);
  transform: translate(0px, 0.5px);
}
svg.railroad-diagram g.non-terminal text {
  transform: translate(0px, 1px);
}

svg.railroad-diagram g.non-terminal text.comment,
svg.railroad-diagram g.terminal text.comment,
svg.railroad-diagram text.comment {
  font-style: italic;
  font-size: 12px;
  transform: translate(0px, -2px);
}

svg.railroad-diagram rect {
  stroke-width: var(--line-width);
  stroke: var(--line-colour);
  fill: var(--cell-bg-colour);
}

svg.railroad-diagram rect.group-box {
  stroke: var(--group-colour);
  stroke-dasharray: 2 4;
  stroke-width: 1.5px;
  fill: none;
}

/* ]]> */
</style></svg>