<svg class="railroad-diagram" height="124" viewBox="0 0 389.0 124" width="389.0" xmlns="http://www.w3.org/2000/svg" xmlns:xlink="http://www.w3.org/1999/xlink">
<g transform="translate(.5 .5)">
<g>
<path d="M20 83v20m0 -10h20" /></g><path d="M40 93h10" /><g>
<path d="M50 93h0.0" /><path d="M339.0 93h0.0" /><g>
<path d="M50.0 93h0.0" /><path d="M152.5 93h0.0" /><path d="M50.0 93a10 10 0 0 0 10 -10v0a10 10 0 0 1 10 -10" /><g>
<path d="M70.0 73h62.5" /></g><path d="M132.5 73a10 10 0 0 1 10 10v0a10 10 0 0 0 10 10" /><path d="M50.0 93h20" /><g class="non-terminal ">
<path d="M70.0 93h0.0" /><path d="M132.5 93h0.0" /><rect height="22" width="62.5" x="70" y="82"></rect><text x="101.25" y="97">flags</text></g><path d="M132.5 93h20" /></g><g>
<path d="M152.5 93h0.0" /><path d="M241.0 93h0.0" /><path d="M152.5 93a10 10 0 0 0 10 -10v-18a10 10 0 0 1 10 -10" /><g>
<path d="M172.5 55h0.0" /><path d="M221.0 55h0.0" /><rect class="group-box" height="38" rx="10" ry="10" width="48.5" x="172.5" y="36"></rect><g class="terminal ">
<path d="M172.5 55h10.0" /><path d="M211.0 55h10.0" /><rect height="22" rx="10" ry="10" width="28.5" x="182.5" y="44"></rect><text x="196.75" y="59">@</text></g><g class="non-terminal ">
<path d="M172.5 28h0.0" /><path d="M203.5 28h0.0" /><text class="comment" x="188" y="33">ref</text></g></g><path d="M221.0 55a10 10 0 0 1 10 10v18a10 10 0 0 0 10 10" /><path d="M152.5 93h20" /><g class="terminal ">
<path d="M172.5 93h10.0" /><path d="M211.0 93h10.0" /><rect height="22" rx="10" ry="10" width="28.5" x="182.5" y="82"></rect><text x="196.75" y="97">=</text></g><path d="M221.0 93h20" /></g><path d="M241.0 93h10" /><g class="terminal ">
<path d="M251.0 93h0.0" /><path d="M339.0 93h0.0" /><rect height="22" rx="10" ry="10" width="88" x="251" y="82"></rect><text x="295" y="97">Any char</text></g></g><path d="M339.0 93h10" /><path d="M 349.0 93 h 20 m 0 -10 v 20"></path></g><style>/* <![CDATA[ */
	svg.railroad-diagram {
		background-color:hsl(30,20%,95%);
	}
	svg.railroad-diagram path {
		stroke-width:3;
		stroke:black;
		fill:rgba(0,0,0,0);
	}
	svg.railroad-diagram text {
		font:bold 14px monospace;
		text-anchor:middle;
	}
	svg.railroad-diagram text.label{
		text-anchor:start;
	}
	svg.railroad-diagram text.comment{
		font:italic 12px monospace;
	}
	svg.railroad-diagram rect{
		stroke-width:3;
		stroke:black;
		fill:hsl(120,100%,90%);
	}
	svg.railroad-diagram rect.group-box {
		stroke: gray;
		stroke-dasharray: 10 5;
		fill: none;
	}

/* ]]> */
</style></svg>